<svg version="1.1" viewBox="0.0 0.0 972.6666666666666 810.9081364829397" fill="none" stroke="none" stroke-linecap="square" stroke-miterlimit="10" xmlns:xlink="http://www.w3.org/1999/xlink" xmlns="http://www.w3.org/2000/svg"><clipPath id="p.0"><path d="m0 0l972.6667 0l0 810.90814l-972.6667 0l0 -810.90814z" clip-rule="nonzero"/></clipPath><g clip-path="url(#p.0)"><path fill="#000000" fill-opacity="0.0" d="m0 0l972.6667 0l0 810.90814l-972.6667 0z" fill-rule="evenodd"/><path fill="#434343" d="m11.569038 5.5876255l640.0 0l0 799.748l-640.0 0z" fill-rule="evenodd"/><path stroke="#000000" stroke-width="1.0" stroke-linejoin="round" stroke-linecap="butt" d="m11.569038 5.5876255l640.0 0l0 799.748l-640.0 0z" fill-rule="evenodd"/><path fill="#00ffa0" d="m104.45407 715.3318l478.3254 0l0 51.26367l-478.3254 0z" fill-rule="evenodd"/><path stroke="#000000" stroke-width="1.0" stroke-linejoin="round" stroke-linecap="butt" d="m104.45407 715.3318l478.3254 0l0 51.26367l-478.3254 0z" fill-rule="evenodd"/><path fill="#cfe2f3" d="m582.80054 257.8281l0 457.07718l-40.82831 0l0 -457.07718z" fill-rule="evenodd"/><path stroke="#000000" stroke-width="1.0" stroke-linejoin="round" stroke-linecap="butt" d="m582.80054 257.8281l0 457.07718l-40.82831 0l0 -457.07718z" fill-rule="evenodd"/><path fill="#cfe2f3" d="m145.24934 257.8281l0 447.0745l-40.82827 0l0 -447.0745z" fill-rule="evenodd"/><path stroke="#000000" stroke-width="1.0" stroke-linejoin="round" stroke-linecap="butt" d="m145.24934 257.8281l0 447.0745l-40.82827 0l0 -447.0745z" fill-rule="evenodd"/><path fill="#cfe2f3" d="m104.45333 217.84816l269.80026 0l0 40.010696l-269.80026 0z" fill-rule="evenodd"/><path stroke="#000000" stroke-width="1.0" stroke-linejoin="round" stroke-linecap="butt" d="m104.45333 217.84816l269.80026 0l0 40.010696l-269.80026 0z" fill-rule="evenodd"/><path fill="#cfe2f3" d="m395.24866 217.84816l187.55487 0l0 40.010696l-187.55487 0z" fill-rule="evenodd"/><path stroke="#000000" stroke-width="1.0" stroke-linejoin="round" stroke-linecap="butt" d="m395.24866 217.84816l187.55487 0l0 40.010696l-187.55487 0z" fill-rule="evenodd"/><path fill="#00ffa0" d="m145.25044 696.98486l348.44702 0l0 6.9249268l-348.44702 0z" fill-rule="evenodd"/><path stroke="#000000" stroke-width="1.0" stroke-linejoin="round" stroke-linecap="butt" d="m145.25044 696.98486l348.44702 0l0 6.9249268l-348.44702 0z" fill-rule="evenodd"/><path fill="#00ffa0" d="m193.5241 681.345l348.44702 0l0 6.9249268l-348.44702 0z" fill-rule="evenodd"/><path stroke="#000000" stroke-width="1.0" stroke-linejoin="round" stroke-linecap="butt" d="m193.5241 681.345l348.44702 0l0 6.9249268l-348.44702 0z" fill-rule="evenodd"/><path fill="#00ffa0" d="m145.25453 665.70514l348.44702 0l0 6.9249268l-348.44702 0z" fill-rule="evenodd"/><path stroke="#000000" stroke-width="1.0" stroke-linejoin="round" stroke-linecap="butt" d="m145.25453 665.70514l348.44702 0l0 6.9249268l-348.44702 0z" fill-rule="evenodd"/><path fill="#00ffa0" d="m193.52818 650.06525l348.44702 0l0 6.9249268l-348.44702 0z" fill-rule="evenodd"/><path stroke="#000000" stroke-width="1.0" stroke-linejoin="round" stroke-linecap="butt" d="m193.52818 650.06525l348.44702 0l0 6.9249268l-348.44702 0z" fill-rule="evenodd"/><path fill="#00ffa0" d="m145.25182 634.4254l348.44702 0l0 6.9249268l-348.44702 0z" fill-rule="evenodd"/><path stroke="#000000" stroke-width="1.0" stroke-linejoin="round" stroke-linecap="butt" d="m145.25182 634.4254l348.44702 0l0 6.9249268l-348.44702 0z" fill-rule="evenodd"/><path fill="#00ffa0" d="m193.52545 618.7855l348.44708 0l0 6.9249268l-348.44708 0z" fill-rule="evenodd"/><path stroke="#000000" stroke-width="1.0" stroke-linejoin="round" stroke-linecap="butt" d="m193.52545 618.7855l348.44708 0l0 6.9249268l-348.44708 0z" fill-rule="evenodd"/><path fill="#00ffa0" d="m145.2559 603.1457l348.44702 0l0 6.9249268l-348.44702 0z" fill-rule="evenodd"/><path stroke="#000000" stroke-width="1.0" stroke-linejoin="round" stroke-linecap="butt" d="m145.2559 603.1457l348.44702 0l0 6.9249268l-348.44702 0z" fill-rule="evenodd"/><path fill="#00ffa0" d="m193.52954 587.5058l348.44708 0l0 6.9249268l-348.44708 0z" fill-rule="evenodd"/><path stroke="#000000" stroke-width="1.0" stroke-linejoin="round" stroke-linecap="butt" d="m193.52954 587.5058l348.44708 0l0 6.9249268l-348.44708 0z" fill-rule="evenodd"/><path fill="#00ffa0" d="m145.25182 571.86597l348.44702 0l0 6.9249268l-348.44702 0z" fill-rule="evenodd"/><path stroke="#000000" stroke-width="1.0" stroke-linejoin="round" stroke-linecap="butt" d="m145.25182 571.86597l348.44702 0l0 6.9249268l-348.44702 0z" fill-rule="evenodd"/><path fill="#00ffa0" d="m193.52545 556.22614l348.44708 0l0 6.9249268l-348.44708 0z" fill-rule="evenodd"/><path stroke="#000000" stroke-width="1.0" stroke-linejoin="round" stroke-linecap="butt" d="m193.52545 556.22614l348.44708 0l0 6.9249268l-348.44708 0z" fill-rule="evenodd"/><path fill="#00ffa0" d="m145.2559 540.58624l348.44702 0l0 6.9249268l-348.44702 0z" fill-rule="evenodd"/><path stroke="#000000" stroke-width="1.0" stroke-linejoin="round" stroke-linecap="butt" d="m145.2559 540.58624l348.44702 0l0 6.9249268l-348.44702 0z" fill-rule="evenodd"/><path fill="#00ffa0" d="m193.52954 524.9464l348.44708 0l0 6.9249268l-348.44708 0z" fill-rule="evenodd"/><path stroke="#000000" stroke-width="1.0" stroke-linejoin="round" stroke-linecap="butt" d="m193.52954 524.9464l348.44708 0l0 6.9249268l-348.44708 0z" fill-rule="evenodd"/><path fill="#00ffa0" d="m145.25317 509.30652l348.44705 0l0 6.9249268l-348.44705 0z" fill-rule="evenodd"/><path stroke="#000000" stroke-width="1.0" stroke-linejoin="round" stroke-linecap="butt" d="m145.25317 509.30652l348.44705 0l0 6.9249268l-348.44705 0z" fill-rule="evenodd"/><path fill="#00ffa0" d="m193.52682 493.66666l348.44705 0l0 6.9249268l-348.44705 0z" fill-rule="evenodd"/><path stroke="#000000" stroke-width="1.0" stroke-linejoin="round" stroke-linecap="butt" d="m193.52682 493.66666l348.44705 0l0 6.9249268l-348.44705 0z" fill-rule="evenodd"/><path fill="#00ffa0" d="m145.25726 478.0268l348.44095 0l0 6.929138l-348.44095 0z" fill-rule="evenodd"/><path stroke="#000000" stroke-width="1.0" stroke-linejoin="round" stroke-linecap="butt" d="m145.25726 478.0268l348.44095 0l0 6.929138l-348.44095 0z" fill-rule="evenodd"/><path fill="#00ffa0" d="m193.53091 462.38696l348.44705 0l0 6.9248962l-348.44705 0z" fill-rule="evenodd"/><path stroke="#000000" stroke-width="1.0" stroke-linejoin="round" stroke-linecap="butt" d="m193.53091 462.38696l348.44705 0l0 6.9248962l-348.44705 0z" fill-rule="evenodd"/><path fill="#ff0000" d="m403.7559 171.5454l0 45.685287l-8.50589 0l0 -45.685287z" fill-rule="evenodd"/><path stroke="#000000" stroke-width="1.0" stroke-linejoin="round" stroke-linecap="butt" d="m403.7559 171.5454l0 45.685287l-8.50589 0l0 -45.685287z" fill-rule="evenodd"/><path fill="#ff0000" d="m374.2688 193.19781l0 24.173126l-8.50589 0l0 -24.173126z" fill-rule="evenodd"/><path stroke="#000000" stroke-width="1.0" stroke-linejoin="round" stroke-linecap="butt" d="m374.2688 193.19781l0 24.173126l-8.50589 0l0 -24.173126z" fill-rule="evenodd"/><path fill="#ff0000" d="m224.82608 185.796l149.44196 0l0 6.9249268l-149.44196 0z" fill-rule="evenodd"/><path stroke="#000000" stroke-width="1.0" stroke-linejoin="round" stroke-linecap="butt" d="m224.82608 185.796l149.44196 0l0 6.9249268l-149.44196 0z" fill-rule="evenodd"/><path fill="#ff0000" d="m245.80728 171.5454l149.44193 0l0 6.9249268l-149.44193 0z" fill-rule="evenodd"/><path stroke="#000000" stroke-width="1.0" stroke-linejoin="round" stroke-linecap="butt" d="m245.80728 171.5454l149.44193 0l0 6.9249268l-149.44193 0z" fill-rule="evenodd"/><path fill="#ff0000" d="m245.80728 157.2948l149.44193 0l0 6.9249268l-149.44193 0z" fill-rule="evenodd"/><path stroke="#000000" stroke-width="1.0" stroke-linejoin="round" stroke-linecap="butt" d="m245.80728 157.2948l149.44193 0l0 6.9249268l-149.44193 0z" fill-rule="evenodd"/><path fill="#ff0000" d="m224.82608 143.0442l149.44196 0l0 6.9249268l-149.44196 0z" fill-rule="evenodd"/><path stroke="#000000" stroke-width="1.0" stroke-linejoin="round" stroke-linecap="butt" d="m224.82608 143.0442l149.44196 0l0 6.9249268l-149.44196 0z" fill-rule="evenodd"/><path fill="#ff0000" d="m224.82686 143.0442l0 49.66069l-8.50589 0l0 -49.66069z" fill-rule="evenodd"/><path stroke="#000000" stroke-width="1.0" stroke-linejoin="round" stroke-linecap="butt" d="m224.82686 143.0442l0 49.66069l-8.50589 0l0 -49.66069z" fill-rule="evenodd"/><path fill="#ff0000" d="m245.80806 157.2948l0 21.063324l-8.50589 0l0 -21.063324z" fill-rule="evenodd"/><path stroke="#000000" stroke-width="1.0" stroke-linejoin="round" stroke-linecap="butt" d="m245.80806 157.2948l0 21.063324l-8.50589 0l0 -21.063324z" fill-rule="evenodd"/><path fill="#ff0000" d="m382.7747 128.9058l0 21.063324l-8.50589 0l0 -21.063324z" fill-rule="evenodd"/><path stroke="#000000" stroke-width="1.0" stroke-linejoin="round" stroke-linecap="butt" d="m382.7747 128.9058l0 21.063324l-8.50589 0l0 -21.063324z" fill-rule="evenodd"/><path fill="#ff0000" d="m403.7559 114.60712l0 49.660706l-8.50589 0l0 -49.660706z" fill-rule="evenodd"/><path stroke="#000000" stroke-width="1.0" stroke-linejoin="round" stroke-linecap="butt" d="m403.7559 114.60712l0 49.660706l-8.50589 0l0 -49.660706z" fill-rule="evenodd"/><path fill="#ff0000" d="m224.82608 129.32259l149.44196 0l0 6.9249268l-149.44196 0z" fill-rule="evenodd"/><path stroke="#000000" stroke-width="1.0" stroke-linejoin="round" stroke-linecap="butt" d="m224.82608 129.32259l149.44196 0l0 6.9249268l-149.44196 0z" fill-rule="evenodd"/><path fill="#ff0000" d="m245.80728 115.07199l149.44193 0l0 6.924919l-149.44193 0z" fill-rule="evenodd"/><path stroke="#000000" stroke-width="1.0" stroke-linejoin="round" stroke-linecap="butt" d="m245.80728 115.07199l149.44193 0l0 6.924919l-149.44193 0z" fill-rule="evenodd"/><path fill="#ff0000" d="m245.80728 100.82139l149.44193 0l0 6.9249268l-149.44193 0z" fill-rule="evenodd"/><path stroke="#000000" stroke-width="1.0" stroke-linejoin="round" stroke-linecap="butt" d="m245.80728 100.82139l149.44193 0l0 6.9249268l-149.44193 0z" fill-rule="evenodd"/><path fill="#ff0000" d="m224.82608 86.570786l149.44196 0l0 6.9249268l-149.44196 0z" fill-rule="evenodd"/><path stroke="#000000" stroke-width="1.0" stroke-linejoin="round" stroke-linecap="butt" d="m224.82608 86.570786l149.44196 0l0 6.9249268l-149.44196 0z" fill-rule="evenodd"/><path fill="#ff0000" d="m224.82686 86.570786l0 49.660706l-8.50589 0l0 -49.660706z" fill-rule="evenodd"/><path stroke="#000000" stroke-width="1.0" stroke-linejoin="round" stroke-linecap="butt" d="m224.82686 86.570786l0 49.660706l-8.50589 0l0 -49.660706z" fill-rule="evenodd"/><path fill="#ff0000" d="m245.80806 100.82139l0 21.063316l-8.50589 0l0 -21.063316z" fill-rule="evenodd"/><path stroke="#000000" stroke-width="1.0" stroke-linejoin="round" stroke-linecap="butt" d="m245.80806 100.82139l0 21.063316l-8.50589 0l0 -21.063316z" fill-rule="evenodd"/><path fill="#ff0000" d="m382.7747 72.432396l0 21.063316l-8.50589 0l0 -21.063316z" fill-rule="evenodd"/><path stroke="#000000" stroke-width="1.0" stroke-linejoin="round" stroke-linecap="butt" d="m382.7747 72.432396l0 21.063316l-8.50589 0l0 -21.063316z" fill-rule="evenodd"/><path fill="#ff0000" d="m403.7559 58.13371l0 49.660694l-8.50589 0l0 -49.660694z" fill-rule="evenodd"/><path stroke="#000000" stroke-width="1.0" stroke-linejoin="round" stroke-linecap="butt" d="m403.7559 58.13371l0 49.660694l-8.50589 0l0 -49.660694z" fill-rule="evenodd"/><path fill="#ff0000" d="m224.82697 58.13371l170.41223 0l0 6.924923l-170.41223 0z" fill-rule="evenodd"/><path stroke="#000000" stroke-width="1.0" stroke-linejoin="round" stroke-linecap="butt" d="m224.82697 58.13371l170.41223 0l0 6.924923l-170.41223 0z" fill-rule="evenodd"/><path fill="#ff0000" d="m224.82686 58.13371l0 21.063313l-8.50589 0l0 -21.063313z" fill-rule="evenodd"/><path stroke="#000000" stroke-width="1.0" stroke-linejoin="round" stroke-linecap="butt" d="m224.82686 58.13371l0 21.063313l-8.50589 0l0 -21.063313z" fill-rule="evenodd"/><path fill="#ff0000" d="m224.82608 72.272095l149.44196 0l0 6.9249268l-149.44196 0z" fill-rule="evenodd"/><path stroke="#000000" stroke-width="1.0" stroke-linejoin="round" stroke-linecap="butt" d="m224.82608 72.272095l149.44196 0l0 6.9249268l-149.44196 0z" fill-rule="evenodd"/><path fill="#000000" fill-opacity="0.0" d="m191.53091 381.79953l348.44095 0" fill-rule="evenodd"/><path stroke="#00ffa0" stroke-width="3.0" stroke-linejoin="round" stroke-linecap="butt" d="m209.5309 381.79953l312.44098 0" fill-rule="evenodd"/><path fill="#00ffa0" stroke="#00ffa0" stroke-width="3.0" stroke-linecap="butt" d="m209.5309 376.84433l-13.614288 4.9552l13.614288 4.9552z" fill-rule="evenodd"/><path fill="#00ffa0" stroke="#00ffa0" stroke-width="3.0" stroke-linecap="butt" d="m521.97186 386.75473l13.614319 -4.9552l-13.614319 -4.9552z" fill-rule="evenodd"/><path fill="#000000" fill-opacity="0.0" d="m152.23097 349.86484l29.417328 0l0 51.275574l-29.417328 0z" fill-rule="evenodd"/><path fill="#00ffa0" d="m160.9248 386.06262l0 -21.0l2.78125 0l0 18.515625l10.34375 0l0 2.484375l-13.125 0z" fill-rule="nonzero"/><path fill="#00ffa0" d="m145.51181 445.61285l168.69293 0l0 6.8031616l-168.69293 0z" fill-rule="evenodd"/><path stroke="#000000" stroke-width="1.0" stroke-linejoin="round" stroke-linecap="butt" d="m145.51181 445.61285l168.69293 0l0 6.8031616l-168.69293 0z" fill-rule="evenodd"/><path fill="#000000" fill-opacity="0.0" d="m146.03084 435.51968l167.65355 0" fill-rule="evenodd"/><path stroke="#00ffa0" stroke-width="3.0" stroke-linejoin="round" stroke-linecap="butt" d="m164.03084 435.51968l131.65355 0" fill-rule="evenodd"/><path fill="#00ffa0" stroke="#00ffa0" stroke-width="3.0" stroke-linecap="butt" d="m164.03084 430.56448l-13.614288 4.9552l13.614288 4.9552z" fill-rule="evenodd"/><path fill="#00ffa0" stroke="#00ffa0" stroke-width="3.0" stroke-linecap="butt" d="m295.6844 440.47488l13.614288 -4.9552l-13.614288 -4.9552z" fill-rule="evenodd"/><path fill="#000000" fill-opacity="0.0" d="m322.39896 401.1391l29.417328 0l0 51.275604l-29.417328 0z" fill-rule="evenodd"/><path fill="#00ffa0" d="m328.3774 437.3369l0 -21.0l2.78125 0l0 18.515625l10.34375 0l0 2.484375l-13.125 0z" fill-rule="nonzero"/><path fill="#00ffa0" d="m344.25082 448.3369l0 -8.796875l-1.515625 0l0 -1.34375l1.515625 0l0 -1.078125q0 -1.015625 0.171875 -1.515625q0.25 -0.671875 0.875 -1.078125q0.625 -0.421875 1.75 -0.421875q0.734375 0 1.609375 0.171875l-0.265625 1.5q-0.53125 -0.09375 -1.0 -0.09375q-0.78125 0 -1.109375 0.34375q-0.328125 0.328125 -0.328125 1.234375l0 0.9375l1.984375 0l0 1.34375l-1.984375 0l0 8.796875l-1.703125 0z" fill-rule="nonzero"/><path fill="#000000" fill-opacity="0.0" d="m88.1706 707.0302c-9.697594 0 -17.559052 -7.861511 -17.559052 -17.559082l0 -92.188965c0 -9.697632 -7.861458 -17.559082 -17.559055 -17.559082l0 0c9.6975975 0 17.559055 -7.86145 17.559055 -17.559021l0 -92.188995l0 0c0 -9.697601 7.861458 -17.559052 17.559052 -17.559052z" fill-rule="evenodd"/><path fill="#000000" fill-opacity="0.0" d="m88.1706 707.0302c-9.697594 0 -17.559052 -7.861511 -17.559052 -17.559082l0 -92.188965c0 -9.697632 -7.861458 -17.559082 -17.559055 -17.559082l0 0c9.6975975 0 17.559055 -7.86145 17.559055 -17.559021l0 -92.188995l0 0c0 -9.697601 7.861458 -17.559052 17.559052 -17.559052" fill-rule="evenodd"/><path stroke="#00ffa0" stroke-width="3.0" stroke-linejoin="round" stroke-linecap="butt" d="m88.1706 707.0302c-9.697594 0 -17.559052 -7.861511 -17.559052 -17.559082l0 -92.188965c0 -9.697632 -7.861458 -17.559082 -17.559055 -17.559082l0 0c9.6975975 0 17.559055 -7.86145 17.559055 -17.559021l0 -92.188995l0 0c0 -9.697601 7.861458 -17.559052 17.559052 -17.559052" fill-rule="evenodd"/><path fill="#000000" fill-opacity="0.0" d="m11.569553 554.0853l29.417324 0l0 51.275574l-29.417324 0z" fill-rule="evenodd"/><path fill="#00ffa0" d="m17.92267 590.2831l0 -21.0l2.84375 0l11.031248 16.484375l0 -16.484375l2.671875 0l0 21.0l-2.859375 0l-11.031248 -16.5l0 16.5l-2.65625 0z" fill-rule="nonzero"/><path fill="#000000" fill-opacity="0.0" d="m783.40356 677.8261l0 -24.345398" fill-rule="evenodd"/><path stroke="#00ffa0" stroke-width="1.0" stroke-linejoin="round" stroke-linecap="butt" d="m783.40356 671.8261l0 -12.345398" fill-rule="evenodd"/><path fill="#00ffa0" stroke="#00ffa0" stroke-width="1.0" stroke-linecap="butt" d="m781.75183 671.8261l1.6517334 4.538086l1.6517334 -4.538086z" fill-rule="evenodd"/><path fill="#00ffa0" stroke="#00ffa0" stroke-width="1.0" stroke-linecap="butt" d="m785.0553 659.4807l-1.6517334 -4.538147l-1.6517334 4.538147z" fill-rule="evenodd"/><path fill="#000000" fill-opacity="0.0" d="m742.92487 651.3677l31.723816 0l0 28.570984l-31.723816 0z" fill-rule="evenodd"/><path fill="#00ffa0" d="m759.53424 676.2132l0 -18.515625l-6.921875 0l0 -2.484375l16.640625 0l0 2.484375l-6.953125 0l0 18.515625l-2.765625 0z" fill-rule="nonzero"/><path fill="#434343" d="m666.3348 677.8313l192.32574 0l0 92.40869l-192.32574 0z" fill-rule="evenodd"/><path stroke="#000000" stroke-width="1.0" stroke-linejoin="round" stroke-linecap="butt" d="m666.3348 677.8313l192.32574 0l0 92.40869l-192.32574 0z" fill-rule="evenodd"/><path fill="#000000" fill-opacity="0.0" d="m431.47485 645.6838l33.186523 0l0 -33.186523l-33.186523 0z" fill-rule="evenodd"/><path stroke="#fab500" stroke-width="3.0" stroke-linejoin="round" stroke-linecap="butt" d="m431.47485 645.6838l33.186523 0l0 -33.186523l-33.186523 0z" fill-rule="evenodd"/><path fill="#000000" fill-opacity="0.0" d="m431.88385 646.5246l231.91559 122.70239" fill-rule="evenodd"/><path stroke="#fab500" stroke-width="3.0" stroke-linejoin="round" stroke-linecap="butt" d="m431.88385 646.5246l231.91559 122.70239" fill-rule="evenodd"/><path fill="#000000" fill-opacity="0.0" d="m432.2143 612.2763l232.76068 -35.851868" fill-rule="evenodd"/><path stroke="#fab500" stroke-width="3.0" stroke-linejoin="round" stroke-linecap="butt" d="m432.2143 612.2763l232.76068 -35.851868" fill-rule="evenodd"/><path fill="#00ffa0" d="m687.4405 653.48047l52.916443 0l0 24.345459l-52.916443 0z" fill-rule="evenodd"/><path stroke="#000000" stroke-width="1.0" stroke-linejoin="round" stroke-linecap="butt" d="m687.4405 653.48047l52.916443 0l0 24.345459l-52.916443 0z" fill-rule="evenodd"/><path fill="#00ffa0" d="m790.17786 653.4777l52.916443 0l0 24.345459l-52.916443 0z" fill-rule="evenodd"/><path stroke="#000000" stroke-width="1.0" stroke-linejoin="round" stroke-linecap="butt" d="m790.17786 653.4777l52.916443 0l0 24.345459l-52.916443 0z" fill-rule="evenodd"/><path fill="#000000" fill-opacity="0.0" d="m843.0943 644.13556l-52.916443 0" fill-rule="evenodd"/><path stroke="#00ffa0" stroke-width="1.0" stroke-linejoin="round" stroke-linecap="butt" d="m837.0943 644.13556l-40.91638 0" fill-rule="evenodd"/><path fill="#00ffa0" stroke="#00ffa0" stroke-width="1.0" stroke-linecap="butt" d="m837.0943 645.7873l4.538147 -1.6517334l-4.538147 -1.6517334z" fill-rule="evenodd"/><path fill="#00ffa0" stroke="#00ffa0" stroke-width="1.0" stroke-linecap="butt" d="m796.1779 642.4838l-4.538086 1.6517334l4.538086 1.6517334z" fill-rule="evenodd"/><path fill="#000000" fill-opacity="0.0" d="m800.77374 615.56464l31.723816 0l0 28.570923l-31.723816 0z" fill-rule="evenodd"/><path fill="#00ffa0" d="m808.9955 640.4101l0 -21.0l7.890625 0q2.40625 0 3.859375 0.640625q1.453125 0.640625 2.265625 1.96875q0.828125 1.328125 0.828125 2.765625q0 1.34375 -0.734375 2.53125q-0.734375 1.1875 -2.203125 1.921875q1.90625 0.5625 2.921875 1.90625q1.03125 1.34375 1.03125 3.171875q0 1.484375 -0.625 2.75q-0.625 1.265625 -1.546875 1.953125q-0.90625 0.6875 -2.296875 1.046875q-1.375 0.34375 -3.375 0.34375l-8.015625 0zm2.78125 -12.171875l4.546875 0q1.84375 0 2.640625 -0.25q1.0625 -0.3125 1.59375 -1.03125q0.546875 -0.734375 0.546875 -1.84375q0 -1.046875 -0.5 -1.828125q-0.5 -0.796875 -1.4375 -1.09375q-0.921875 -0.296875 -3.1875 -0.296875l-4.203125 0l0 6.34375zm0 9.6875l5.234375 0q1.34375 0 1.890625 -0.09375q0.953125 -0.171875 1.59375 -0.5625q0.65625 -0.40625 1.0625 -1.171875q0.421875 -0.765625 0.421875 -1.78125q0 -1.171875 -0.609375 -2.03125q-0.59375 -0.875 -1.671875 -1.21875q-1.0625 -0.34375 -3.0625 -0.34375l-4.859375 0l0 7.203125z" fill-rule="nonzero"/><path fill="#000000" fill-opacity="0.0" d="m664.5101 770.24l194.14606 0l0 -194.146l-194.14606 0z" fill-rule="evenodd"/><path stroke="#fab500" stroke-width="3.0" stroke-linejoin="round" stroke-linecap="butt" d="m664.5101 770.24l194.14606 0l0 -194.146l-194.14606 0z" fill-rule="evenodd"/><path fill="#000000" fill-opacity="0.0" d="m461.8517 455.51816l49.855255 0l0 49.855255l-49.855255 0z" fill-rule="evenodd"/><path stroke="#fab500" stroke-width="3.0" stroke-linejoin="round" stroke-linecap="butt" d="m461.8517 455.51816l49.855255 0l0 49.855255l-49.855255 0z" fill-rule="evenodd"/><path fill="#000000" fill-opacity="0.0" d="m462.00995 455.6151l278.80316 -197.5748" fill-rule="evenodd"/><path stroke="#fab500" stroke-width="3.0" stroke-linejoin="round" stroke-linecap="butt" d="m462.00995 455.6151l278.80316 -197.5748" fill-rule="evenodd"/><path fill="#000000" fill-opacity="0.0" d="m511.9449 504.99213l229.51178 -64.06299" fill-rule="evenodd"/><path stroke="#fab500" stroke-width="3.0" stroke-linejoin="round" stroke-linecap="butt" d="m511.9449 504.99213l229.51178 -64.06299" fill-rule="evenodd"/><path fill="#434343" d="m740.31323 258.01422l182.91937 0l0 182.91937l-182.91937 0z" fill-rule="evenodd"/><path fill="#00ffa0" d="m740.78174 366.7162l106.18854 0l0 -22.943268l-106.18854 0z" fill-rule="evenodd"/><path stroke="#000000" stroke-width="1.0" stroke-linejoin="round" stroke-linecap="butt" d="m740.78174 366.7162l106.18854 0l0 -22.943268l-106.18854 0z" fill-rule="evenodd"/><path fill="#00ffa0" d="m741.79266 413.62466l180.67822 0l0 -22.943268l-180.67822 0z" fill-rule="evenodd"/><path stroke="#000000" stroke-width="1.0" stroke-linejoin="round" stroke-linecap="butt" d="m741.79266 413.62466l180.67822 0l0 -22.943268l-180.67822 0z" fill-rule="evenodd"/><path fill="#00ffa0" d="m741.55566 319.8072l180.90613 0l0 -22.943268l-180.90613 0z" fill-rule="evenodd"/><path stroke="#000000" stroke-width="1.0" stroke-linejoin="round" stroke-linecap="butt" d="m741.55566 319.8072l180.90613 0l0 -22.943268l-180.90613 0z" fill-rule="evenodd"/><path fill="#000000" fill-opacity="0.0" d="m861.1893 346.3989l0 22.937073" fill-rule="evenodd"/><path stroke="#00ffa0" stroke-width="1.0" stroke-linejoin="round" stroke-linecap="butt" d="m861.18933 352.39886l0 10.937103" fill-rule="evenodd"/><path fill="#00ffa0" stroke="#00ffa0" stroke-width="1.0" stroke-linecap="butt" d="m862.84106 352.39886l-1.6517334 -4.538086l-1.6517334 4.538086z" fill-rule="evenodd"/><path fill="#00ffa0" stroke="#00ffa0" stroke-width="1.0" stroke-linecap="butt" d="m859.5376 363.33597l1.6517334 4.538086l1.6517334 -4.538086z" fill-rule="evenodd"/><path fill="#000000" fill-opacity="0.0" d="m871.96326 332.93945l76.46716 0l0 49.855255l-76.46716 0z" fill-rule="evenodd"/><path fill="#00ffa0" d="m883.1039 368.42706l0 -21.0l7.890625 0q2.40625 0 3.859375 0.640625q1.453125 0.640625 2.265625 1.96875q0.828125 1.328125 0.828125 2.765625q0 1.34375 -0.734375 2.53125q-0.734375 1.1875 -2.203125 1.921875q1.90625 0.5625 2.921875 1.90625q1.03125 1.34375 1.03125 3.171875q0 1.484375 -0.625 2.75q-0.625 1.265625 -1.546875 1.953125q-0.90625 0.6875 -2.296875 1.046875q-1.375 0.34375 -3.375 0.34375l-8.015625 0zm2.78125 -12.171875l4.546875 0q1.84375 0 2.640625 -0.25q1.0625 -0.3125 1.59375 -1.03125q0.546875 -0.734375 0.546875 -1.84375q0 -1.046875 -0.5 -1.828125q-0.5 -0.796875 -1.4375 -1.09375q-0.921875 -0.296875 -3.1875 -0.296875l-4.203125 0l0 6.34375zm0 9.6875l5.234375 0q1.34375 0 1.890625 -0.09375q0.953125 -0.171875 1.59375 -0.5625q0.65625 -0.40625 1.0625 -1.171875q0.421875 -0.765625 0.421875 -1.78125q0 -1.171875 -0.609375 -2.03125q-0.59375 -0.875 -1.671875 -1.21875q-1.0625 -0.34375 -3.0625 -0.34375l-4.859375 0l0 7.203125z" fill-rule="nonzero"/><path fill="#000000" fill-opacity="0.0" d="m740.4681 258.01422l182.92914 0l0 182.92914l-182.92914 0z" fill-rule="evenodd"/><path stroke="#fab500" stroke-width="3.0" stroke-linejoin="round" stroke-linecap="butt" d="m740.4681 258.01422l182.92914 0l0 182.92914l-182.92914 0z" fill-rule="evenodd"/></g></svg>